<svg xmlns="http://www.w3.org/2000/svg" xmlns:xlink="http://www.w3.org/1999/xlink" x="0px" y="0px" viewBox="0 0 50 50" style="enable-background:new 0 0 50 50;" xml:space="preserve">
	<path d="M25,0C11.2,0,0,11.2,0,25s11.2,25,25,25s25-11.2,25-25S38.8,0,25,0z M46.9,25c-6.1-1.6-11.4-1.6-15.9-0.8 c-0.7-1.5-1.4-3-2.1-4.4c4.8-1.9,9.3-4.8,12.8-8.9C44.9,14.7,46.9,19.6,46.9,25C46.9,25,46.9,25,46.9,25z M39.5,8.7 c-3.2,3.8-7.5,6.4-12.1,8.2c-3.2-6.1-6.4-10.7-8.1-13.1C21.2,3.4,23,3.1,25,3.1C30.6,3.1,35.7,5.2,39.5,8.7z M16.2,5 c1.4,1.9,4.7,6.6,8.2,13c-8.5,2.7-17.3,2.8-20.9,2.7C5,13.7,9.8,7.8,16.2,5z M3.1,25c0-0.4,0-0.8,0.1-1.1c0.6,0,1.3,0,2.2,0 c4.6,0,12.6-0.4,20.6-3c0.7,1.3,1.3,2.7,1.9,4.1C17.3,28.1,11.2,36.1,8.9,39.8C5.3,35.9,3.1,30.7,3.1,25z M11.2,42 c1.7-3,7.3-11.2,17.8-14.2c2.1,5.2,3.9,11,5,17.1c-2.7,1.2-5.8,1.9-9,1.9C19.8,46.9,15,45,11.2,42z M36.9,43.3 c-1-5.8-2.8-11.3-4.7-16.2c4.1-0.7,9-0.5,14.5,1C45.7,34.5,42,40,36.9,43.3z" fill="#4D4D4D"/>
</svg>
