<svg xmlns="http://www.w3.org/2000/svg" xmlns:xlink="http://www.w3.org/1999/xlink" x="0px" y="0px" viewBox="0 0 50 50" style="enable-background:new 0 0 50 50;" xml:space="preserve">
	<path d="M46.6,12.8c-2.2-3.9-5.3-7.1-9.1-9.3S29.5,0,25,0s-8.7,1.1-12.5,3.5c-3.8,2.3-6.9,5.4-9.1,9.3 C1.1,16.7,0,21,0,25.6c0,5.6,1.6,10.7,4.8,15.1c3.2,4.5,7.3,7.6,12.3,9.2c0.6,0.1,1,0,1.3-0.2c0.3-0.3,0.4-0.6,0.4-1 c0-0.1,0-0.7,0-1.8s0-2.2,0-3L18,44.2c-0.5,0.1-1.1,0.1-1.8,0.1c-0.7,0-1.5-0.1-2.3-0.2c-0.8-0.1-1.5-0.5-2.2-1 c-0.7-0.5-1.1-1.2-1.4-2.1L10,40.2c-0.2-0.5-0.6-1.1-1-1.7c-0.5-0.6-0.9-1-1.4-1.2L7.4,37c-0.2-0.1-0.3-0.2-0.4-0.4 s-0.2-0.3-0.3-0.5c-0.1-0.2,0-0.3,0.2-0.4c0.2-0.1,0.5-0.1,0.9-0.1l0.7,0.1c0.4,0.1,1,0.3,1.6,0.8c0.6,0.4,1.2,1,1.6,1.7 c0.5,0.9,1.1,1.6,1.8,2.1c0.7,0.5,1.4,0.7,2.1,0.7c0.7,0,1.3-0.1,1.9-0.2c0.5-0.1,1-0.3,1.5-0.5c0.2-1.5,0.7-2.7,1.6-3.5 c-1.2-0.1-2.3-0.3-3.3-0.6c-1-0.3-2-0.7-3.1-1.3c-1.1-0.6-1.9-1.3-2.6-2.3c-0.7-0.9-1.3-2.1-1.7-3.5s-0.7-3.1-0.7-5 c0-2.7,0.9-5,2.6-6.9c-0.8-2.1-0.7-4.3,0.2-6.8c0.6-0.2,1.6,0,2.8,0.4c1.2,0.5,2.1,0.9,2.7,1.3c0.6,0.3,1,0.6,1.4,0.9 c2-0.6,4.1-0.8,6.2-0.8s4.2,0.3,6.3,0.8l1.2-0.8c0.8-0.5,1.8-1,3-1.4c1.2-0.4,2-0.6,2.6-0.4c1,2.6,1.1,4.8,0.3,6.8 c1.7,1.8,2.6,4.2,2.6,6.9c0,1.8-0.2,3.6-0.7,5c-0.4,1.4-1,2.7-1.7,3.5c-0.7,0.9-1.6,1.6-2.6,2.3c-1.1,0.6-2.1,1-3.1,1.3 c-1,0.3-2.1,0.5-3.3,0.6c1.1,1,1.7,2.6,1.7,4.7v7.1c0,0.4,0.1,0.7,0.4,1c0.3,0.3,0.7,0.3,1.3,0.2c5-1.7,9.1-4.8,12.3-9.2 c3-4.3,4.6-9.3,4.6-15C50,21,48.9,16.7,46.6,12.8z" fill="#4D4D4D"/>
</svg>
