<svg xmlns="http://www.w3.org/2000/svg" xmlns:xlink="http://www.w3.org/1999/xlink" x="0px" y="0px" viewBox="0 0 50 50" style="enable-background:new 0 0 50 50;" xml:space="preserve">
  <path class="st0" d="M50,9.7c-1.8,0.8-3.8,1.3-5.9,1.6c2.1-1.2,3.7-3.2,4.5-5.6c-2,1.2-4.2,2-6.5,2.5c-1.9-2-4.5-3.2-7.5-3.2 C29,5,24.3,9.5,24.3,15.1c0,0.8,0.1,1.6,0.3,2.3C16,17,8.4,13,3.4,6.8C2.5,8.3,2,10,2,11.9c0,3.5,1.8,6.6,4.6,8.4 c-1.7,0-3.3-0.5-4.7-1.2v0.1c0,4.9,3.5,9,8.2,9.9c-0.9,0.2-1.8,0.4-2.7,0.4c-0.7,0-1.3-0.1-1.9-0.2c1.3,4,5.1,6.9,9.6,7 c-3.5,2.7-7.9,4.3-12.7,4.3c-0.8,0-1.6,0-2.4-0.1C4.4,43.3,9.8,45,15.6,45c18.9,0,29.3-15.4,29.3-28.7V15 C46.9,13.5,48.6,11.8,50,9.7z" fill="#111111"/>
</svg>
