<svg xmlns="http://www.w3.org/2000/svg" xmlns:xlink="http://www.w3.org/1999/xlink" x="0px" y="0px" viewBox="0 0 50 50" style="enable-background:new 0 0 50 50;" xml:space="preserve">
  <path d="M50,31.7V4.2c0-1.8-1.5-3.3-3.3-3.3H3.3C1.5,0.8,0,2.3,0,4.2v27.5v4.2c0,1.8,1.5,3.3,3.3,3.3H20c-0.2,3.3-1.6,5-4.1,5h-1.7 c-1.4,0-2.5,1.1-2.5,2.5c0,1.4,1.1,2.5,2.5,2.5h21.7c1.4,0,2.5-1.1,2.5-2.5c0-1.4-1.1-2.5-2.5-2.5h-1.7c-2.6,0-3.9-1.7-4.1-5h16.6 c1.8,0,3.3-1.5,3.3-3.3L50,31.7C50,31.7,50,31.7,50,31.7z M35.8,45.8c0.5,0,0.8,0.4,0.8,0.8s-0.4,0.8-0.8,0.8H14.2 c-0.5,0-0.8-0.4-0.8-0.8s0.4-0.8,0.8-0.8H35.8z M19.9,44.2c1-1.1,1.6-2.8,1.8-5h6.7c0.1,2.2,0.7,3.9,1.8,5H19.9z M1.7,4.2 c0-0.9,0.7-1.7,1.7-1.7h43.3c0.9,0,1.7,0.7,1.7,1.7v26.7h-1.7V5c0-0.5-0.4-0.8-0.8-0.8H4.2C3.7,4.2,3.3,4.5,3.3,5v25.8H1.7V4.2z M45,30.8H5v-25h40V30.8z M48.3,35.8L48.3,35.8c0,0.9-0.7,1.7-1.7,1.7H3.3c-0.9,0-1.7-0.7-1.7-1.7v-3.3h2.5h41.7h2.5V35.8z" fill="#4D4D4D"/>
  <path d="M27.5,34.2h-5c-0.5,0-0.8,0.4-0.8,0.8s0.4,0.8,0.8,0.8h5c0.5,0,0.8-0.4,0.8-0.8S28,34.2,27.5,34.2z" fill="#4D4D4D"/>
  <path d="M21.7,16.7H15c-0.5,0-0.8,0.4-0.8,0.8v3.3c0,0.5,0.4,0.8,0.8,0.8h6.7c0.5,0,0.8-0.4,0.8-0.8v-3.3 C22.5,17,22.1,16.7,21.7,16.7z M20.8,20h-5v-1.7h5V20z" fill="#4D4D4D"/>
  <path d="M11.7,25h19.2l0.8,2.7c0.1,0.3,0.3,0.5,0.6,0.6c0.3,0.1,0.6,0,0.8-0.2l1.2-1.2l2,2c0.2,0.2,0.4,0.2,0.6,0.2 c0.2,0,0.4-0.1,0.6-0.2l2.4-2.4c0.3-0.3,0.3-0.9,0-1.2l-2-2l1.1-1.1c0.2-0.2,0.3-0.5,0.2-0.8c-0.1-0.3-0.3-0.5-0.6-0.6L35.8,20V8.3 c0-0.2-0.1-0.4-0.2-0.6S35.2,7.5,35,7.5H11.7c-0.5,0-0.8,0.4-0.8,0.8v4.2v11.7C10.8,24.6,11.2,25,11.7,25z M36.1,24l1.9,1.9 l-1.2,1.2L35,25.3c-0.2-0.2-0.5-0.3-0.8-0.3c-0.3,0-0.6,0.1-0.8,0.3l-0.6,0.6l-1.4-4.5l-0.3-1l0.1,0l3.4,1c0,0,0,0,0,0l2,0.6 l-0.6,0.6c-0.2,0.2-0.3,0.4-0.3,0.7C35.8,23.6,35.9,23.9,36.1,24z M30.2,18.4c-0.1,0-0.1,0-0.2,0c-0.2,0-0.4,0.1-0.6,0.2 c-0.2,0.2-0.3,0.5-0.2,0.8l1.2,3.9H12.5v-10h21.7v6.2L30.2,18.4z M12.5,9.2h21.7v2.5H12.5V9.2z" fill="#4D4D4D"/>
</svg>
