<svg version="1" xmlns="http://www.w3.org/2000/svg" width="433.333" height="433.333" viewBox="0 0 325.000000 325.000000"><path d="M151.5 27.3c-6 14.9-11.6 29-12.6 31.2-.9 2.2-4.7 11.6-8.4 21-3.7 9.3-7.3 18.3-8 20-2.4 5.4-9.5 23.9-9.5 24.7 0 .4 2.2.8 4.9.8h4.9l8.9-22.5 8.8-22.4 8.3-.1c5.8 0 8.2.4 8.3 1.2.5 4.7.3 153.5-.2 153.2-.3-.2-8.1-19.2-17.4-42.4l-16.8-42h-10.5l24.9 62.1c13.6 34.2 25 62.3 25.2 62.6.5.4 49.7-122.1 49.7-123.7 0-.6-2.2-1-4.8-1h-4.8l-12.9 32.2c-7.1 17.8-13.6 34.1-14.6 36.3-.9 2.2-2.8 6.8-4 10.2-1.3 3.5-2.6 6.3-2.9 6.3-.3 0-.5-34.9-.5-77.5V80h8.6c8.5 0 8.7 0 9.7 2.7.6 1.6 4.6 11.7 8.8 22.5l7.7 19.8h4.9c2.6 0 4.8-.4 4.8-.9C212 123.3 163.2.8 162.6.3c-.1-.2-5.1 12-11.1 27zm21.1 21.9l8.2 20.8h-18c-9.9 0-17.8-.4-17.6-.9 10.5-27.5 17.4-43.6 18.2-42.2.6.9 4.7 10.9 9.2 22.3z"/><path d="M86.5 100.6c-21.6 16.4-38.4 41.6-45 67.8-3 11.9-3.8 17.8-4 31.1-.8 61.2 45.6 115.3 106.4 124.3 6.3.9 31.4.9 38.1-.1 12.2-1.7 29.5-7.6 41-14 20.1-11.2 38.7-30 49.9-50.7 10.2-18.9 14.7-37.9 14.4-60.9-.4-37.5-17.3-72.4-46.2-95.3l-7.4-5.9-2 4.7-2.1 4.7 3.5 2.9c30.1 26 44.3 55.9 43.8 92.5-.1 14.2-1.8 23.9-6 36.1-7.6 21.6-21.4 40.3-40.7 55-11.4 8.6-34.4 18.3-49.2 20.7-8.3 1.3-27.7 1.3-36.3-.1-34.1-5.5-63.4-25.5-81.5-55.8-13.8-23-18.8-54-13.1-81.1 3.1-14.8 11.3-32.9 20.3-44.8 5.8-7.7 16.1-18.3 21.3-21.9 3.7-2.6 3.9-3.7 1.5-9.1l-1.7-3.8-5 3.7z"/></svg>