<svg version="1" xmlns="http://www.w3.org/2000/svg" width="500" height="500" viewBox="0 0 375.000000 375.000000"><path d="M182 38.2c-2.9 7.3-5.8 14.6-6.5 16.3-.7 1.6-7.9 19.6-16 40-8.1 20.3-15.3 38.3-16 40-.7 1.6-2.4 5.8-3.8 9.2l-2.6 6.3h10.7l8.9-22.5 8.8-22.4 8.1-.1c5.7 0 8.3.4 8.6 1.2.4 1.2.3 151-.1 153.3-.1.5-3.1-6.4-6.7-15.5s-6.9-17.4-7.4-18.5c-.5-1.1-1.9-4.5-3.1-7.5-1.2-3-2.7-6.9-3.4-8.5-.7-1.7-4.1-10.1-7.6-18.8l-6.2-15.7h-4.9c-2.6 0-4.8.5-4.8 1 0 1 47.5 120.2 49 122.9.4.8 7.7-16.1 19-44.5 10-25.3 18.8-47.3 19.5-48.9 3.2-7.2 11.5-28.6 11.5-29.5 0-.6-2.2-1-4.8-1-5.6 0-4.3-2-13.7 22-3.1 8-6.2 15.8-7 17.5-.7 1.6-2.5 6.1-4 10-1.5 3.8-3.4 8.3-4 10-.7 1.6-3.2 7.8-5.5 13.8-2.3 5.9-4.5 10.9-4.9 11.1-.3.2-.6-34.3-.6-76.7v-77.2l8.5-.2 8.5-.3 8.8 22.5 8.9 22.5h4.9c2.7 0 4.9-.3 4.9-.8 0-.7-5-13.8-7.5-19.7-.7-1.7-6.6-16.3-13-32.5s-12.3-30.9-13-32.5c-.8-1.7-4.5-11.1-8.5-20.9-3.9-9.9-7.2-18.1-7.4-18.3-.2-.2-2.7 5.6-5.6 12.9zM196 72c4.5 11.3 8.4 21.1 8.7 21.7.4 1-3.4 1.3-17.2 1.3-13.8 0-17.6-.3-17.2-1.3 13-32.6 17.1-42.6 17.3-42.4.1.1 3.9 9.4 8.4 20.7z"/><path d="M111 126c-8.7 6.4-21.2 19.9-27.8 29.9C54.8 199 55.6 255.1 85.1 297c19.4 27.5 50.9 46.9 83.9 51.8 5.8.9 32.3.9 37.5 0 50.6-8.5 89.9-44.4 102.4-93.3 2.6-10.4 3.5-18.6 3.4-31.5-.1-26.7-7.7-50.4-23.1-71.9-5.4-7.6-18.7-21.3-25.7-26.5l-5-3.7-1.7 3.8c-2.3 5.4-2.2 6.5 1.4 9 8.6 6 22.6 22.2 29 33.3 6.5 11.4 12.6 29.7 14.3 42.5 1.1 8.4.7 23.7-.9 33.6-3.6 22.2-14.2 43.1-30.3 59.9-17.6 18.5-39.4 30.1-64.8 34.4-7.8 1.3-30.3 1.4-35.5.2-1.4-.4-4.1-.9-6-1.2-11.8-1.9-31.8-10.8-43.8-19.6-24.2-17.5-42.4-47.1-45.8-74.1-.3-2.3-.8-4.9-1-5.7-.7-1.9-.5-23.3.2-28 3-19.9 11.2-39.7 22.6-54.5 5.2-6.6 14.7-16.3 19.7-20 4.4-3.2 4.5-4 1.8-10.7l-1.2-2.9-5.5 4.1z"/></svg>